# xmcd
#
# Track frame offsets: 
#        150
#        23337
#        51585
#        68082
#        86900
#        120462
#        137877
#        160290
#        189155
#        207327
#        234245
#        260262
#
# Disc length: 4066 seconds
#
# Revision: 7
# Processed by: cddbd v1.5.2PL0 Copyright (c) Steve Scherf et al.
# Submitted via: ExactAudioCopy v0.99pb5
#
DISCID=9e0fe00c
DTITLE=Alvin Lee - I Hear You Rockin'
DYEAR=1994
DGENRE=Blues-Rock
TTITLE0=Keep On Rockin'
TTITLE1=Long Legs
TTITLE2=I Hear You Knockin'
TTITLE3=Ain't Nobody's Business
TTITLE4=The Bluest Blues
TTITLE5=Boogie All Day
TTITLE6=My Baby's Come Back To Me
TTITLE7=Take It Easy
TTITLE8=Play It Like It Used To Be
TTITLE9=Give Me Your Love
TTITLE10=I Don't Give A Damn
TTITLE11=I Want You (She's So Heavy)
EXTD=Seagull 111102-SG\nSeagull Music Scandinavia as, Vettre, Norway\n
EXTD=Alvin Lee, guitar, vocals and drums\nSteve Gould: bass and vocals\nSt
EXTD=eve Grant: bass, vocals and keys\nAlan Young: drums\nGuests on vol 
EXTD=1:\nJoe Brown, vocals and plectrum on 3, 6\nSam Brown, vocals on 2,
EXTD=10\nGeorge Harrison: slide guitar on 5, 7\nDeena Payne: vocals o
EXTD=n 2, 10\nTim Hinkley: Hammond organ on 5, 11\nTim Hinkley: piano 
EXTD=on 9
EXTT0=(Alvin Lee)
EXTT1=(Alvin Lee)
EXTT2=(King/Bartholomew)
EXTT3=(Alvin Lee/Steve Grant)
EXTT4=(Alvin Lee)
EXTT5=(Alvin Lee)
EXTT6=(Alvin Lee)
EXTT7=(Alvin Lee)
EXTT8=(Alvin Lee/Tim Hinley)
EXTT9=(Alvin Lee/Steve Gould)
EXTT10=(Alvin Lee)
EXTT11=(Lennon/McCartney)
PLAYORDER=
